<svg xmlns="http://www.w3.org/2000/svg" width="32.205" height="23.477" viewBox="0 0 32.205 23.477"><path id="Path_5255" data-name="Path 5255" d="M2577.746-866.206a16.1,16.1,0,0,1-16.1,16.1,16.1,16.1,0,0,1-16.1-16.1,16.03,16.03,0,0,1,1.591-6.983,16.039,16.039,0,0,0-1.573,6.965,16.073,16.073,0,0,0,13.156,15.812c.173.036.345.073.528.1.036.009.082.009.118.018v-10.193h-3.7v-4.21h3.7v-3.21c0-3.655,2.182-5.674,5.51-5.674a22.731,22.731,0,0,1,3.264.282v3.592h-1.845a2.1,2.1,0,0,0-2.373,2.273v2.737h4.046l-.646,4.21h-3.4v10.193c.036-.009.063-.009.1-.018.182-.027.364-.064.546-.1a16.073,16.073,0,0,0,13.166-15.812,16.046,16.046,0,0,0-1.573-6.965A16.036,16.036,0,0,1,2577.746-866.206Z" transform="translate(-2545.541 873.58)" fill="#010202"></path></svg>