<svg xmlns="http://www.w3.org/2000/svg" width="18.86" height="18.86" viewBox="0 0 18.86 18.86"><g id="Group_10868" data-name="Group 10868" transform="translate(0 0)"><g id="Group_10867" data-name="Group 10867"><path id="Path_5252" data-name="Path 5252" d="M2965.4-865.909a1.105,1.105,0,0,0-1.105,1.106,1.106,1.106,0,0,0,1.105,1.106,1.106,1.106,0,0,0,1.105-1.106A1.105,1.105,0,0,0,2965.4-865.909Z" transform="translate(-2950.982 869.276)" fill="#010202"></path><path id="Path_5253" data-name="Path 5253" d="M2918.627-857.471a4.65,4.65,0,0,0-4.645,4.644,4.65,4.65,0,0,0,4.645,4.645,4.65,4.65,0,0,0,4.645-4.645A4.65,4.65,0,0,0,2918.627-857.471Zm0,7.62a2.978,2.978,0,0,1-2.975-2.975,2.978,2.978,0,0,1,2.975-2.975,2.978,2.978,0,0,1,2.975,2.975A2.978,2.978,0,0,1,2918.627-849.851Z" transform="translate(-2909.119 862.256)" fill="#010202"></path><path id="Path_5254" data-name="Path 5254" d="M2898.237-867.09h-7.53a5.671,5.671,0,0,1-5.665-5.665v-7.53a5.671,5.671,0,0,1,5.665-5.665h7.53a5.671,5.671,0,0,1,5.665,5.665v7.53A5.672,5.672,0,0,1,2898.237-867.09Zm-7.53-17.086a3.9,3.9,0,0,0-3.891,3.891v7.53a3.9,3.9,0,0,0,3.891,3.891h7.53a3.9,3.9,0,0,0,3.891-3.891v-7.53a3.9,3.9,0,0,0-3.891-3.891Z" transform="translate(-2885.042 885.95)" fill="#010202"></path></g></g></svg>