<svg xmlns="http://www.w3.org/2000/svg" width="14.069" height="14.036" viewBox="0 0 14.069 14.036"><g id="Group_10874" data-name="Group 10874" transform="translate(0 0)"><path id="Path_5261" data-name="Path 5261" d="M3798.584-872.7h2.919v9.377h-2.919Zm1.46-4.66a1.69,1.69,0,0,1,1.69,1.689,1.691,1.691,0,0,1-1.69,1.691,1.692,1.692,0,0,1-1.692-1.691,1.69,1.69,0,0,1,1.692-1.689" transform="translate(-3798.352 877.36)" fill="#010202"></path><path id="Path_5262" data-name="Path 5262" d="M3827.99-850.778h2.8v1.283h.038a3.064,3.064,0,0,1,2.76-1.515c2.951,0,3.495,1.941,3.495,4.466v5.143h-2.912v-4.559c0-1.088-.021-2.487-1.515-2.487-1.517,0-1.749,1.184-1.749,2.407v4.638h-2.913Z" transform="translate(-3823.01 855.437)" fill="#010202"></path></g></svg>    