<svg xmlns="http://www.w3.org/2000/svg" width="17.543" height="14.439" viewBox="0 0 17.543 14.439"><path id="Path_5251" data-name="Path 5251" d="M3207.232-871.065a7.225,7.225,0,0,1-1.774.506c.285-.048.7-.564.872-.773a3.244,3.244,0,0,0,.589-1.074c.016-.031.027-.069,0-.092a.1.1,0,0,0-.094.008,9.06,9.06,0,0,1-2.1.8.141.141,0,0,1-.145-.039,1.712,1.712,0,0,0-.184-.188,3.729,3.729,0,0,0-1.019-.624,3.545,3.545,0,0,0-1.563-.252,3.736,3.736,0,0,0-1.483.419,3.822,3.822,0,0,0-1.2.977,3.677,3.677,0,0,0-.715,1.431,3.88,3.88,0,0,0-.038,1.511c.011.084,0,.1-.072.084a11.235,11.235,0,0,1-7.228-3.679c-.084-.1-.13-.1-.2.007a3.665,3.665,0,0,0,.625,4.331c.142.134.287.268.444.391a3.679,3.679,0,0,1-1.395-.391c-.084-.053-.126-.023-.134.073a2.2,2.2,0,0,0,.023.414,3.707,3.707,0,0,0,2.284,2.955,2.174,2.174,0,0,0,.463.142,4.127,4.127,0,0,1-1.368.042c-.1-.019-.137.031-.1.126a3.847,3.847,0,0,0,2.874,2.407c.13.023.26.023.391.053-.008.012-.016.012-.023.023a4.554,4.554,0,0,1-1.963,1.04,7.031,7.031,0,0,1-2.981.382c-.16-.024-.194-.022-.237,0s-.006.065.046.107c.2.134.41.253.621.368a9.852,9.852,0,0,0,1.993.8,10.614,10.614,0,0,0,10.3-2.409,10.812,10.812,0,0,0,2.852-7.888c0-.113.134-.176.213-.236a6.951,6.951,0,0,0,1.4-1.458.441.441,0,0,0,.093-.279v-.015C3207.3-871.111,3207.3-871.1,3207.232-871.065Z" transform="translate(-3189.761 872.796)" fill="#010202"></path></svg>