<svg width="62" height="27" viewBox="0 0 62 27" fill="none" xmlns="http://www.w3.org/2000/svg">
<path fill-rule="evenodd" clip-rule="evenodd" d="M21.1523 22.8389H22.5776C22.7961 22.8389 22.9854 22.867 23.1452 22.9231C23.305 22.9793 23.4374 23.0552 23.5426 23.1508C23.6476 23.2465 23.7264 23.3589 23.7791 23.4877C23.8316 23.6166 23.8578 23.7539 23.8578 23.8994C23.8578 24.0326 23.8337 24.1531 23.7853 24.2613C23.737 24.3694 23.6781 24.4609 23.6088 24.5357C23.5394 24.6105 23.4637 24.6709 23.3817 24.7167C23.2997 24.7624 23.2251 24.7894 23.1579 24.7978C23.2462 24.8102 23.3439 24.8362 23.4511 24.8757C23.5583 24.9152 23.6581 24.9745 23.7507 25.0535C23.8431 25.1325 23.921 25.2355 23.984 25.3623C24.0471 25.4891 24.0787 25.6461 24.0787 25.8333C24.0787 26.0578 24.0376 26.2441 23.9556 26.3915C23.8736 26.5392 23.7622 26.6588 23.6214 26.7502C23.4804 26.8418 23.3134 26.9062 23.12 26.9436C22.9266 26.9811 22.7206 26.9998 22.5019 26.9998H21.1523V22.8389ZM22.4894 24.5731C22.5817 24.5731 22.6743 24.5618 22.7668 24.5388C22.8593 24.516 22.9435 24.4796 23.0191 24.4297C23.0948 24.3798 23.1557 24.3153 23.202 24.2363C23.2481 24.1573 23.2713 24.0616 23.2713 23.9493C23.2713 23.8245 23.2481 23.7238 23.202 23.6467C23.1557 23.5699 23.0948 23.5095 23.0191 23.4658C22.9435 23.4222 22.8593 23.3931 22.7668 23.3785C22.6743 23.364 22.5817 23.3567 22.4894 23.3567H21.7389V24.5731H22.4894ZM22.4704 26.482C22.5797 26.482 22.6932 26.4758 22.8109 26.4633C22.9286 26.4508 23.0369 26.4218 23.1358 26.376C23.2345 26.3303 23.3155 26.2627 23.3786 26.1732C23.4416 26.0838 23.4732 25.9601 23.4732 25.8021C23.4732 25.6523 23.4426 25.5318 23.3817 25.4402C23.3208 25.3489 23.243 25.2761 23.1484 25.2219C23.0538 25.1679 22.9498 25.1314 22.8362 25.1128C22.7227 25.094 22.6133 25.0847 22.5082 25.0847H21.7389V26.482H22.4704Z" fill="black"/>
<path fill-rule="evenodd" clip-rule="evenodd" d="M26.6704 22.8389H27.2885L28.9345 26.9998H28.2597L27.8245 25.8395H26.0965L25.6614 26.9998H25.0244L26.6704 22.8389ZM27.6416 25.3342L26.9605 23.5065L26.2731 25.3342H27.6416Z" fill="black"/>
<path fill-rule="evenodd" clip-rule="evenodd" d="M30.1138 22.8389H30.7256L33.0211 26.089V22.8389H33.6139V26.9998H33.0085L30.7066 23.7435V26.9998H30.1138V22.8389Z" fill="black"/>
<path fill-rule="evenodd" clip-rule="evenodd" d="M35.2031 22.8389H35.8022V24.7291L37.5618 22.8389H38.2556L36.6914 24.5357L38.4447 26.9998H37.7195L36.2816 24.96L35.8022 25.4714V26.9998H35.2031V22.8389Z" fill="black"/>
<path fill-rule="evenodd" clip-rule="evenodd" d="M51.8409 0C52.1736 0 52.5055 0.0161296 52.8367 0.0483888C53.1678 0.080648 53.4965 0.128881 53.8229 0.193089C54.1492 0.257297 54.4716 0.33717 54.79 0.432708C55.1084 0.528246 55.4213 0.638989 55.7287 0.764937C56.0361 0.890885 56.3365 1.03143 56.6299 1.18658C56.9234 1.34172 57.2084 1.51072 57.4851 1.69357C57.7617 1.87641 58.0286 2.07223 58.2858 2.28102C58.543 2.48981 58.7893 2.71057 59.0246 2.94329C59.2598 3.17601 59.483 3.41958 59.6941 3.67399C59.9052 3.9284 60.1031 4.19243 60.288 4.46609C60.4728 4.73974 60.6437 5.02169 60.8005 5.31195C60.9574 5.6022 61.0995 5.89936 61.2268 6.20343C61.3541 6.5075 61.4661 6.817 61.5627 7.13195C61.6593 7.44689 61.74 7.76577 61.8049 8.08856C61.8698 8.41135 61.9186 8.73652 61.9512 9.06405C61.9838 9.39158 62.0001 9.71991 62.0001 10.049C62.0001 10.3781 61.9838 10.7065 61.9512 11.034C61.9186 11.3615 61.8698 11.6867 61.8049 12.0095C61.74 12.3323 61.6593 12.6512 61.5627 12.9661C61.4661 13.281 61.3541 13.5906 61.2268 13.8946C61.0995 14.1987 60.9574 14.4958 60.8005 14.7861C60.6437 15.0764 60.4728 15.3583 60.288 15.632C60.1031 15.9056 59.9052 16.1696 59.6941 16.4241C59.483 16.6785 59.2598 16.922 59.0246 17.1548C58.7893 17.3875 58.5431 17.6082 58.2858 17.817C58.0286 18.0258 57.7617 18.2216 57.4851 18.4045C57.2084 18.5873 56.9234 18.7563 56.6299 18.9115C56.3365 19.0666 56.0361 19.2072 55.7287 19.3331C55.4213 19.4591 55.1084 19.5698 54.79 19.6653C54.4716 19.7609 54.1492 19.8408 53.8229 19.905C53.4965 19.9692 53.1678 20.0174 52.8367 20.0497C52.5055 20.0819 52.1736 20.0981 51.8409 20.0981C51.5082 20.0981 51.1762 20.0819 50.8451 20.0497C50.514 20.0174 50.1853 19.9692 49.8589 19.905C49.5326 19.8408 49.2102 19.7609 48.8918 19.6653C48.5734 19.5698 48.2605 19.4591 47.9531 19.3331C47.6457 19.2072 47.3453 19.0666 47.0519 18.9115C46.7584 18.7563 46.4734 18.5873 46.1967 18.4045C45.9201 18.2216 45.6531 18.0258 45.3959 17.817C45.1387 17.6082 44.8925 17.3875 44.6572 17.1548C44.4219 16.922 44.1988 16.6785 43.9877 16.4241C43.7766 16.1697 43.5786 15.9056 43.3938 15.632C43.2089 15.3583 43.0381 15.0764 42.8812 14.7861C42.7244 14.4959 42.5823 14.1987 42.455 13.8946C42.3276 13.5906 42.2157 13.2811 42.1191 12.9661C42.0225 12.6512 41.9418 12.3323 41.8768 12.0095C41.8119 11.6867 41.7632 11.3615 41.7306 11.034C41.6979 10.7065 41.6816 10.3781 41.6816 10.049C41.6816 9.71991 41.6979 9.39158 41.7306 9.06405C41.7632 8.73652 41.8119 8.41135 41.8768 8.08856C41.9418 7.76577 42.0225 7.44689 42.1191 7.13195C42.2157 6.817 42.3276 6.5075 42.455 6.20343C42.5823 5.89936 42.7244 5.6022 42.8812 5.31195C43.0381 5.02169 43.2089 4.73974 43.3938 4.46609C43.5786 4.19243 43.7766 3.9284 43.9877 3.67399C44.1988 3.41958 44.4219 3.17601 44.6572 2.94329C44.8925 2.71057 45.1387 2.48981 45.3959 2.28102C45.6531 2.07223 45.9201 1.87641 46.1967 1.69357C46.4734 1.51072 46.7584 1.34172 47.0519 1.18658C47.3453 1.03143 47.6457 0.890885 47.9531 0.764937C48.2605 0.638989 48.5734 0.528246 48.8918 0.432708C49.2102 0.33717 49.5326 0.257297 49.8589 0.193089C50.1853 0.128881 50.514 0.080648 50.8451 0.0483888C51.1762 0.0161296 51.5082 0 51.8409 0Z" fill="#FFD900"/>
<path fill-rule="evenodd" clip-rule="evenodd" d="M18.703 11.103C18.703 16.3854 15.9222 19.4769 12.5508 19.4769C11.2464 19.4769 9.89294 18.99 9.15469 17.4077C8.29328 18.6735 6.96442 19.4769 5.11868 19.4769C3.17461 19.4769 0.959731 18.4301 0.959731 14.5353V10.2998C0.959731 9.22875 0 8.98534 0 8.44983V8.37669C0 8.13328 0.196868 7.91431 0.492172 7.86552L3.64217 7.40303C4.25738 7.33001 4.62651 7.42737 4.62651 8.01168L4.57729 15.9716C4.55268 17.2617 5.02024 18.0893 5.90626 18.0893C7.70268 18.0893 8.61319 15.4361 8.61319 13.2209V10.2998C8.61319 9.22875 7.65346 8.98534 7.65346 8.44983V8.37669C7.65346 8.13328 7.85033 7.91431 8.17024 7.86552L11.0495 7.35435C11.6648 7.25698 12.0585 7.42737 12.0585 8.01168L11.9847 15.8985C11.9601 17.2617 12.3538 18.0893 13.3382 18.0893C15.0608 18.0893 16.8081 15.4361 16.8081 12.9044C16.8081 10.8109 14.5687 10.6892 14.5687 8.81495C14.5687 7.91431 15.1839 7.30566 16.1683 7.30566C17.7433 7.30566 18.703 8.69324 18.703 11.103Z" fill="black"/>
<path fill-rule="evenodd" clip-rule="evenodd" d="M33.4199 18.8196V18.7222C33.4199 18.1136 34.3797 17.9189 34.3797 16.8965V4.92006C34.3797 3.82469 33.4199 3.58127 33.4199 3.0701V2.97274C33.4199 2.72932 33.6168 2.60761 33.9121 2.48591L37.0129 0.976625C37.6527 0.660186 38.0218 1.00108 38.0218 1.41488V16.8965C38.0218 17.9189 39.0801 18.1136 39.0801 18.7222V18.8196C39.0801 19.063 38.834 19.2334 38.5141 19.2334H33.9859C33.6414 19.2334 33.4199 19.063 33.4199 18.8196Z" fill="black"/>
<path fill-rule="evenodd" clip-rule="evenodd" d="M26.8608 18.8196V18.7222C26.8608 18.1136 27.8207 17.9189 27.8207 16.8965V4.92006C27.8207 3.82469 26.8608 3.58127 26.8608 3.0701V2.97274C26.8608 2.72932 27.0578 2.60761 27.3531 2.48591L30.4538 0.976625C31.0937 0.660186 31.4629 1.00108 31.4629 1.41488V16.8965C31.4629 17.9189 32.521 18.1136 32.521 18.7222V18.8196C32.521 19.063 32.2749 19.2334 31.955 19.2334H27.4269C27.0823 19.2334 26.8608 19.063 26.8608 18.8196Z" fill="black"/>
<path fill-rule="evenodd" clip-rule="evenodd" d="M22.8324 1.63574C22.9701 1.63574 23.1065 1.64903 23.2415 1.6756C23.3766 1.70217 23.5077 1.74152 23.6349 1.79364C23.7621 1.84576 23.883 1.90966 23.9975 1.98532C24.112 2.06099 24.2179 2.14698 24.3152 2.24329C24.4126 2.3396 24.4995 2.44438 24.576 2.55762C24.6525 2.67087 24.7171 2.79041 24.7698 2.91624C24.8225 3.04208 24.8623 3.17178 24.8892 3.30537C24.916 3.43895 24.9295 3.57384 24.9295 3.71004C24.9295 3.84624 24.916 3.98114 24.8892 4.11472C24.8623 4.2483 24.8225 4.37801 24.7698 4.50384C24.7171 4.62968 24.6525 4.74922 24.576 4.86246C24.4995 4.97571 24.4126 5.08049 24.3152 5.1768C24.2179 5.2731 24.112 5.35909 23.9975 5.43476C23.883 5.51043 23.7621 5.57433 23.6349 5.62645C23.5077 5.67857 23.3766 5.71792 23.2415 5.74449C23.1065 5.77106 22.9701 5.78434 22.8324 5.78434C22.6947 5.78434 22.5583 5.77106 22.4233 5.74449C22.2882 5.71792 22.1571 5.67857 22.0299 5.62645C21.9027 5.57433 21.7818 5.51043 21.6673 5.43476C21.5529 5.35909 21.4469 5.2731 21.3496 5.1768C21.2522 5.08049 21.1653 4.97571 21.0888 4.86246C21.0123 4.74922 20.9477 4.62968 20.895 4.50384C20.8423 4.37801 20.8025 4.2483 20.7756 4.11472C20.7488 3.98114 20.7354 3.84624 20.7354 3.71004C20.7354 3.57384 20.7488 3.43895 20.7756 3.30537C20.8025 3.17178 20.8423 3.04208 20.895 2.91624C20.9477 2.79041 21.0123 2.67087 21.0888 2.55762C21.1653 2.44438 21.2522 2.3396 21.3496 2.24329C21.4469 2.14698 21.5529 2.06099 21.6673 1.98532C21.7818 1.90966 21.9027 1.84576 22.0299 1.79364C22.1571 1.74152 22.2882 1.70217 22.4233 1.6756C22.5583 1.64903 22.6947 1.63574 22.8324 1.63574Z" fill="black"/>
<path fill-rule="evenodd" clip-rule="evenodd" d="M20.1665 18.8194V18.7221C20.1665 18.1134 21.1017 17.9187 21.1017 16.872V11.3707C21.1017 10.2996 20.1665 10.0318 20.1665 9.49633V9.4233C20.1665 9.20423 20.3635 9.08252 20.6834 8.91213L23.7596 7.40285C24.3748 7.11075 24.7685 7.45153 24.7685 7.88968V16.872C24.7685 17.9187 25.8021 18.1134 25.8021 18.7221V18.8194C25.8021 19.0629 25.5806 19.2333 25.2361 19.2333H20.708C20.3881 19.2333 20.1665 19.0629 20.1665 18.8194Z" fill="black"/>
</svg>
