<svg xmlns="http://www.w3.org/2000/svg" width="17.23" height="20.135" viewBox="0 0 17.23 20.135"><path id="Path_5260" data-name="Path 5260" d="M3504.945-881.061c-.164.016-.329.024-.494.025a5.376,5.376,0,0,1-4.5-2.43v8.277a6.117,6.117,0,0,1-6.117,6.117,6.117,6.117,0,0,1-6.117-6.117,6.117,6.117,0,0,1,6.117-6.117h0c.128,0,.252.011.378.019v3.015a3.124,3.124,0,0,0-.378-.038,3.122,3.122,0,0,0-3.122,3.122,3.122,3.122,0,0,0,3.122,3.122,3.2,3.2,0,0,0,3.248-3.083l.03-14.057H3500a5.372,5.372,0,0,0,4.951,4.8v3.35" transform="translate(-3487.719 889.207)" fill="#010202"></path></svg>